<svg xmlns="http://www.w3.org/2000/svg" width="200" height="112" viewBox="0 0 200 112">
  <title>Akhil hand-drawn signature</title>
  <path fill="#000000" d="M 15.06,80.06 L 16.55,78.56 L 18.07,76.97 L 19.63,75.29 L 21.22,73.53 L 22.85,71.69 L 24.42,69.72 L 26.00,67.68 L 27.60,65.59 L 29.22,63.45 L 30.85,61.26 L 32.49,59.03 L 34.13,56.78 L 35.78,54.51 L 37.43,52.22 L 39.08,49.92 L 40.73,47.62 L 42.37,45.32 L 44.01,43.04 L 45.64,40.79 L 47.26,38.55 L 48.86,36.36 L 50.45,34.20 L 52.02,32.10 L 53.58,30.05 L 55.11,28.06 L 56.61,26.15 L 58.10,24.31 L 59.55,22.56 L 60.97,20.90 L 62.90,19.84 L 62.93,19.83 L 61.63,19.65 L 61.35,19.30 L 61.32,19.71 L 61.23,20.53 L 61.06,21.66 L 60.82,23.05 L 60.52,24.68 L 60.16,26.51 L 59.75,28.53 L 59.29,30.71 L 58.80,33.03 L 58.27,35.47 L 57.72,38.01 L 57.15,40.63 L 56.58,43.30 L 55.99,46.00 L 55.41,48.72 L 54.84,51.44 L 54.28,54.12 L 53.74,56.76 L 53.22,59.33 L 52.74,61.80 L 52.30,64.17 L 51.90,66.40 L 51.55,68.48 L 51.26,70.39 L 51.03,72.10 L 50.86,73.61 L 51.38,74.99 L 51.76,75.68 L 52.37,75.83 L 52.83,75.65 L 53.15,75.38 L 53.43,75.06 L 53.71,74.67 L 54.01,74.20 L 54.32,73.67 L 54.64,73.07 L 54.98,72.41 L 55.34,71.69 L 55.71,70.92 L 56.10,70.11 L 56.50,69.26 L 56.92,68.38 L 57.35,67.47 L 57.79,66.54 L 58.25,65.59 L 58.72,64.64 L 59.19,63.69 L 59.68,62.74 L 60.18,61.80 L 60.68,60.88 L 61.12,59.93 L 61.57,59.01 L 62.03,58.13 L 62.51,57.28 L 63.01,56.48 L 63.52,55.74 L 64.01,55.01 L 63.99,54.99 L 63.28,55.52 L 62.62,56.17 L 61.95,56.86 L 61.29,57.61 L 60.63,58.40 L 59.97,59.22 L 59.32,60.08 L 58.76,61.00 L 58.22,61.95 L 57.70,62.90 L 57.19,63.86 L 56.70,64.82 L 56.22,65.77 L 55.77,66.71 L 55.33,67.62 L 54.91,68.51 L 54.52,69.37 L 54.14,70.18 L 53.79,70.95 L 53.46,71.67 L 53.16,72.33 L 52.88,72.92 L 52.62,73.43 L 52.40,73.86 L 52.21,74.20 L 52.06,74.43 L 52.00,74.53 L 52.14,74.51 L 52.47,74.61 L 52.62,75.01 L 53.42,73.94 L 53.68,72.51 L 54.01,70.86 L 54.39,69.01 L 54.83,66.97 L 55.32,64.78 L 55.84,62.45 L 56.40,60.00 L 56.98,57.46 L 57.58,54.84 L 58.19,52.17 L 58.80,49.47 L 59.41,46.75 L 60.01,44.05 L 60.60,41.37 L 61.16,38.75 L 61.69,36.20 L 62.19,33.74 L 62.65,31.39 L 63.07,29.17 L 63.42,27.11 L 63.72,25.22 L 63.96,23.53 L 64.12,22.04 L 64.21,20.77 L 64.21,19.71 L 64.09,18.81 L 63.53,17.76 L 61.76,17.53 L 61.10,18.16 L 60.19,20.20 L 58.72,21.85 L 57.22,23.59 L 55.70,25.41 L 54.15,27.31 L 52.58,29.28 L 51.00,31.32 L 49.40,33.41 L 47.78,35.55 L 46.15,37.74 L 44.51,39.97 L 42.87,42.22 L 41.22,44.49 L 39.57,46.78 L 37.92,49.08 L 36.27,51.38 L 34.63,53.68 L 32.99,55.96 L 31.36,58.21 L 29.74,60.45 L 28.14,62.64 L 26.55,64.80 L 24.98,66.90 L 23.42,68.95 L 21.89,70.94 L 20.46,72.91 L 19.05,74.81 L 17.66,76.62 L 16.29,78.33 L 14.94,79.94 Z"/>
  <path fill="#000000" d="M 24.01,60.08 L 25.68,59.84 L 27.43,59.58 L 29.27,59.30 L 31.18,58.98 L 33.17,58.65 L 35.20,58.19 L 37.28,57.71 L 39.42,57.20 L 41.61,56.66 L 43.83,56.09 L 46.08,55.50 L 48.37,54.88 L 50.67,54.24 L 52.99,53.57 L 55.32,52.88 L 57.65,52.17 L 59.97,51.44 L 62.29,50.68 L 64.59,49.91 L 66.87,49.12 L 69.13,48.31 L 71.35,47.48 L 73.53,46.64 L 75.64,45.72 L 77.70,44.79 L 79.71,43.85 L 81.65,42.90 L 83.52,41.96 L 85.31,41.00 L 87.01,40.02 L 86.99,39.98 L 85.20,40.79 L 83.35,41.62 L 81.43,42.43 L 79.44,43.23 L 77.38,44.01 L 75.27,44.78 L 73.11,45.53 L 70.93,46.34 L 68.71,47.14 L 66.46,47.92 L 64.18,48.69 L 61.89,49.45 L 59.57,50.19 L 57.26,50.91 L 54.93,51.62 L 52.62,52.31 L 50.31,52.98 L 48.02,53.63 L 45.75,54.26 L 43.51,54.87 L 41.30,55.46 L 39.13,56.02 L 37.00,56.56 L 34.93,57.07 L 32.92,57.55 L 30.98,58.10 L 29.12,58.61 L 27.33,59.09 L 25.61,59.53 L 23.99,59.92 Z"/>
  <path fill="#000000" d="M 71.12,70.02 L 71.50,68.38 L 71.98,66.66 L 72.55,64.85 L 73.21,62.96 L 73.94,61.01 L 74.61,58.96 L 75.33,56.86 L 76.09,54.72 L 76.90,52.56 L 77.74,50.39 L 78.61,48.22 L 79.50,46.07 L 80.39,43.94 L 81.30,41.84 L 82.20,39.80 L 83.09,37.81 L 83.96,35.90 L 84.81,34.08 L 85.63,32.35 L 86.41,30.74 L 87.14,29.25 L 87.82,27.90 L 88.45,26.69 L 89.00,25.65 L 89.48,24.79 L 89.87,24.12 L 90.16,23.67 L 90.27,23.50 L 89.57,23.48 L 89.05,22.85 L 88.67,24.43 L 88.18,26.15 L 87.62,27.96 L 86.97,29.86 L 86.25,31.83 L 85.48,33.86 L 84.66,35.93 L 83.80,38.03 L 82.91,40.14 L 82.00,42.26 L 81.08,44.37 L 80.16,46.46 L 79.25,48.50 L 78.36,50.50 L 77.49,52.44 L 76.66,54.30 L 75.88,56.06 L 75.15,57.73 L 74.48,59.28 L 73.89,60.70 L 73.38,61.99 L 72.96,63.12 L 72.64,64.10 L 72.42,64.93 L 72.31,65.65 L 72.43,66.52 L 73.75,67.29 L 74.55,66.91 L 75.10,66.38 L 75.27,65.30 L 77.30,63.59 L 79.18,62.02 L 80.92,60.60 L 82.51,59.30 L 83.96,58.14 L 85.27,57.12 L 86.45,56.21 L 87.50,55.43 L 88.41,54.78 L 89.20,54.23 L 89.86,53.81 L 90.40,53.49 L 90.80,53.29 L 91.04,53.20 L 91.05,53.19 L 90.76,53.00 L 90.71,52.80 L 90.67,52.91 L 90.54,53.19 L 90.31,53.59 L 89.99,54.08 L 89.58,54.66 L 89.10,55.31 L 88.53,56.04 L 87.89,56.84 L 87.18,57.70 L 86.40,58.63 L 85.56,59.61 L 84.66,60.64 L 83.19,61.41 L 82.98,62.39 L 83.02,62.78 L 83.10,63.20 L 83.22,63.64 L 83.38,64.11 L 83.58,64.59 L 83.82,65.09 L 84.11,65.60 L 84.44,66.11 L 84.81,66.61 L 85.23,67.09 L 85.70,67.55 L 86.22,67.98 L 86.79,68.36 L 87.41,68.69 L 88.09,68.94 L 88.81,69.11 L 89.57,69.18 L 90.36,69.13 L 91.15,68.97 L 91.95,68.68 L 92.74,68.28 L 93.52,67.76 L 94.29,67.12 L 95.05,66.35 L 95.82,65.46 L 96.58,64.44 L 97.34,63.27 L 98.11,61.95 L 98.47,60.23 L 99.21,58.60 L 99.96,56.95 L 100.72,55.27 L 101.49,53.56 L 102.26,51.85 L 103.03,50.13 L 103.80,48.41 L 104.57,46.70 L 105.32,45.02 L 106.06,43.36 L 106.79,41.74 L 107.49,40.17 L 108.17,38.65 L 108.82,37.19 L 109.43,35.80 L 110.01,34.50 L 110.56,33.28 L 111.06,32.15 L 111.51,31.13 L 111.91,30.23 L 112.26,29.44 L 112.55,28.79 L 112.78,28.28 L 112.94,27.93 L 113.01,27.77 L 111.98,27.60 L 111.95,27.34 L 111.89,27.62 L 111.74,28.12 L 110.90,28.75 L 110.49,30.69 L 110.01,32.61 L 109.44,34.58 L 108.79,36.57 L 108.08,38.59 L 107.31,40.62 L 106.49,42.65 L 105.65,44.66 L 104.77,46.66 L 103.88,48.63 L 102.99,50.56 L 102.10,52.44 L 101.22,54.26 L 100.37,56.00 L 99.56,57.66 L 98.78,59.24 L 98.06,60.71 L 97.40,62.07 L 96.81,63.30 L 96.31,64.41 L 95.89,65.39 L 95.56,66.23 L 95.33,66.95 L 95.21,67.64 L 95.49,68.82 L 97.18,69.35 L 97.86,68.93 L 98.40,68.40 L 99.04,67.69 L 99.31,66.31 L 101.41,64.29 L 103.31,62.58 L 105.01,61.14 L 106.52,59.98 L 107.86,59.06 L 109.03,58.37 L 110.03,57.90 L 110.88,57.61 L 111.57,57.48 L 112.12,57.49 L 112.55,57.60 L 112.90,57.78 L 113.19,58.04 L 113.45,58.38 L 113.69,58.79 L 113.89,59.25 L 114.08,59.75 L 114.24,60.28 L 114.41,60.80 L 114.57,61.31 L 114.76,61.78 L 115.00,62.22 L 115.32,62.60 L 115.77,62.87 L 116.33,62.92 L 116.86,62.75 L 117.39,62.41 L 117.96,61.89 L 118.60,61.19 L 119.69,60.55 L 120.20,59.93 L 120.63,59.49 L 120.99,59.16 L 121.28,58.97 L 121.48,58.88 L 121.55,58.89 L 121.49,58.92 L 121.36,58.93 L 121.27,58.91 L 121.24,58.92 L 121.29,59.01 L 121.36,59.17 L 121.46,59.41 L 121.56,59.70 L 121.68,60.03 L 121.80,60.39 L 121.92,60.78 L 122.06,61.18 L 122.22,61.59 L 122.39,62.00 L 122.59,62.41 L 122.81,62.81 L 123.08,63.19 L 123.41,63.54 L 123.80,63.85 L 124.28,64.09 L 124.81,64.20 L 125.36,64.18 L 125.89,64.04 L 126.37,63.43 L 127.25,62.53 L 128.09,61.54 L 128.94,60.44 L 129.79,59.24 L 130.63,57.96 L 131.47,56.59 L 132.31,55.14 L 133.14,53.63 L 133.96,52.06 L 134.77,50.45 L 135.57,48.79 L 136.35,47.10 L 137.13,45.39 L 137.88,43.67 L 138.62,41.94 L 139.33,40.21 L 140.03,38.49 L 140.70,36.80 L 141.35,35.13 L 141.98,33.50 L 142.58,31.92 L 143.15,30.39 L 143.69,28.93 L 144.20,27.54 L 144.67,26.23 L 145.11,25.01 L 145.52,23.89 L 145.89,22.88 L 146.23,21.99 L 144.89,20.64 L 144.15,22.53 L 143.40,24.52 L 142.65,26.57 L 141.92,28.66 L 141.19,30.79 L 140.47,32.94 L 139.76,35.10 L 139.08,37.28 L 138.41,39.44 L 137.76,41.60 L 137.13,43.73 L 136.53,45.83 L 135.95,47.88 L 135.40,49.89 L 134.89,51.83 L 134.40,53.69 L 133.95,55.48 L 133.53,57.17 L 133.16,58.77 L 132.82,60.25 L 132.52,61.61 L 132.26,62.84 L 132.04,63.93 L 131.87,64.87 L 131.74,65.66 L 131.66,66.28 L 131.63,66.74 L 131.63,67.14 L 133.99,67.78 L 133.39,67.35 L 134.76,65.94 L 136.09,64.65 L 137.37,63.47 L 138.60,62.40 L 139.78,61.42 L 140.92,60.53 L 142.02,59.73 L 143.08,58.99 L 144.09,58.33 L 145.08,57.72 L 146.03,57.17 L 146.96,56.65 L 147.85,56.17 L 148.73,55.72 L 149.58,55.29 L 150.42,54.88 L 151.25,54.46 L 152.06,54.05 L 152.85,53.62 L 153.65,53.18 L 154.43,52.72 L 155.21,52.22 L 155.98,51.69 L 156.71,51.04 L 157.42,50.35 L 158.14,49.62 L 158.86,48.82 L 159.58,47.97 L 160.31,47.04 L 161.02,46.01 L 160.98,45.99 L 160.10,46.87 L 159.27,47.68 L 158.44,48.40 L 157.63,49.05 L 156.82,49.62 L 156.01,50.13 L 155.22,50.58 L 154.47,51.06 L 153.71,51.51 L 152.95,51.93 L 152.17,52.34 L 151.38,52.74 L 150.58,53.13 L 149.76,53.54 L 148.92,53.96 L 148.05,54.40 L 147.16,54.86 L 146.24,55.36 L 145.30,55.91 L 144.33,56.50 L 143.33,57.15 L 142.29,57.86 L 141.22,58.64 L 140.12,59.50 L 138.97,60.44 L 137.79,61.47 L 136.57,62.60 L 135.30,63.84 L 133.98,65.18 L 132.61,66.65 L 131.86,66.60 L 134.18,67.20 L 134.24,67.17 L 134.35,66.81 L 134.52,66.25 L 134.72,65.51 L 134.97,64.61 L 135.25,63.55 L 135.57,62.34 L 135.93,61.01 L 136.31,59.55 L 136.72,57.98 L 137.16,56.30 L 137.63,54.53 L 138.11,52.67 L 138.62,50.74 L 139.15,48.75 L 139.70,46.70 L 140.26,44.61 L 140.84,42.48 L 141.43,40.32 L 142.03,38.15 L 142.64,35.97 L 143.26,33.80 L 143.89,31.64 L 144.52,29.51 L 145.16,27.40 L 145.80,25.35 L 146.45,23.34 L 147.11,21.36 L 145.14,21.54 L 144.75,22.43 L 144.33,23.43 L 143.88,24.54 L 143.39,25.74 L 142.88,27.04 L 142.33,28.41 L 141.76,29.86 L 141.16,31.37 L 140.54,32.94 L 139.90,34.56 L 139.23,36.21 L 138.55,37.89 L 137.85,39.60 L 137.13,41.31 L 136.40,43.03 L 135.66,44.75 L 134.91,46.45 L 134.15,48.13 L 133.38,49.77 L 132.60,51.38 L 131.82,52.94 L 131.04,54.44 L 130.25,55.88 L 129.47,57.24 L 128.68,58.52 L 127.90,59.70 L 127.13,60.78 L 126.36,61.75 L 125.63,62.57 L 125.35,62.27 L 125.19,62.26 L 125.12,62.22 L 125.10,62.18 L 125.08,62.12 L 125.02,62.03 L 124.95,61.88 L 124.85,61.67 L 124.75,61.41 L 124.65,61.11 L 124.54,60.77 L 124.43,60.40 L 124.32,60.02 L 124.20,59.62 L 124.07,59.22 L 123.93,58.82 L 123.77,58.43 L 123.58,58.04 L 123.35,57.66 L 123.05,57.30 L 122.66,56.97 L 122.14,56.73 L 121.55,56.64 L 120.98,56.75 L 120.48,56.98 L 120.03,57.30 L 119.61,57.71 L 119.19,58.20 L 118.75,58.79 L 118.31,59.45 L 117.91,60.58 L 117.29,61.20 L 116.79,61.60 L 116.42,61.81 L 116.21,61.85 L 116.15,61.83 L 116.09,61.77 L 115.99,61.61 L 115.86,61.31 L 115.72,60.92 L 115.58,60.44 L 115.44,59.91 L 115.27,59.36 L 115.06,58.78 L 114.81,58.21 L 114.50,57.67 L 114.09,57.17 L 113.58,56.74 L 112.96,56.44 L 112.25,56.28 L 111.45,56.30 L 110.56,56.49 L 109.58,56.85 L 108.49,57.40 L 107.27,58.16 L 105.90,59.14 L 104.37,60.37 L 102.67,61.85 L 100.78,63.62 L 98.69,65.69 L 97.34,66.06 L 96.72,66.61 L 96.33,66.89 L 96.40,66.82 L 97.76,67.29 L 98.01,68.00 L 98.10,67.83 L 98.32,67.34 L 98.66,66.63 L 99.10,65.73 L 99.63,64.68 L 100.25,63.47 L 100.93,62.13 L 101.66,60.66 L 102.44,59.09 L 103.26,57.41 L 104.11,55.64 L 104.97,53.79 L 105.84,51.86 L 106.71,49.89 L 107.56,47.86 L 108.40,45.79 L 109.20,43.70 L 109.96,41.59 L 110.66,39.48 L 111.31,37.37 L 111.89,35.27 L 112.39,33.20 L 112.80,31.16 L 113.10,29.25 L 112.77,28.49 L 112.97,27.98 L 113.10,27.64 L 113.11,27.13 L 111.97,27.04 L 111.79,27.30 L 111.58,27.68 L 111.31,28.19 L 110.98,28.85 L 110.61,29.63 L 110.18,30.53 L 109.71,31.54 L 109.20,32.67 L 108.65,33.89 L 108.07,35.20 L 107.45,36.59 L 106.81,38.05 L 106.14,39.57 L 105.45,41.16 L 104.75,42.79 L 104.03,44.45 L 103.30,46.15 L 102.57,47.87 L 101.83,49.60 L 101.09,51.34 L 100.36,53.07 L 99.63,54.79 L 98.91,56.49 L 98.21,58.16 L 97.53,59.77 L 96.30,60.88 L 95.51,62.06 L 94.75,63.07 L 94.02,63.93 L 93.32,64.64 L 92.65,65.20 L 92.04,65.64 L 91.47,65.95 L 90.95,66.17 L 90.48,66.29 L 90.05,66.35 L 89.66,66.34 L 89.29,66.29 L 88.94,66.20 L 88.59,66.06 L 88.24,65.88 L 87.89,65.66 L 87.55,65.41 L 87.22,65.12 L 86.89,64.80 L 86.59,64.46 L 86.30,64.11 L 86.04,63.76 L 85.80,63.41 L 85.59,63.07 L 85.41,62.75 L 85.26,62.47 L 85.14,62.24 L 85.06,62.07 L 84.81,62.59 L 85.29,61.20 L 86.22,60.19 L 87.09,59.22 L 87.90,58.32 L 88.64,57.47 L 89.31,56.68 L 89.91,55.95 L 90.43,55.30 L 90.88,54.71 L 91.24,54.19 L 91.52,53.73 L 91.73,53.33 L 91.84,52.93 L 91.74,52.40 L 91.20,52.06 L 90.75,52.09 L 90.33,52.25 L 89.84,52.51 L 89.26,52.86 L 88.58,53.32 L 87.78,53.89 L 86.86,54.58 L 85.82,55.39 L 84.65,56.32 L 83.35,57.38 L 81.91,58.57 L 80.33,59.89 L 78.62,61.35 L 76.75,62.95 L 74.73,64.70 L 73.67,64.95 L 73.32,65.20 L 73.53,65.11 L 74.54,65.69 L 74.64,65.91 L 74.75,65.55 L 74.99,64.90 L 75.34,64.03 L 75.79,62.97 L 76.33,61.74 L 76.95,60.35 L 77.64,58.83 L 78.38,57.18 L 79.18,55.42 L 80.01,53.56 L 80.87,51.62 L 81.76,49.61 L 82.65,47.54 L 83.55,45.43 L 84.44,43.29 L 85.32,41.14 L 86.17,38.98 L 86.98,36.83 L 87.75,34.70 L 88.47,32.61 L 89.12,30.57 L 89.71,28.60 L 90.21,26.70 L 90.63,24.89 L 90.95,23.15 L 90.32,22.16 L 89.29,22.26 L 88.88,22.64 L 88.46,23.17 L 87.98,23.87 L 87.43,24.75 L 86.81,25.80 L 86.14,27.00 L 85.41,28.36 L 84.63,29.85 L 83.81,31.47 L 82.97,33.20 L 82.10,35.03 L 81.20,36.96 L 80.30,38.95 L 79.40,41.02 L 78.50,43.14 L 77.61,45.29 L 76.74,47.48 L 75.89,49.68 L 75.07,51.89 L 74.29,54.08 L 73.56,56.26 L 72.88,58.40 L 72.26,60.50 L 71.84,62.58 L 71.49,64.58 L 71.20,66.49 L 71.00,68.30 L 70.88,69.98 Z"/>
  <path fill="#000000" d="M 114.06,45.08 L 114.63,44.77 L 115.20,44.47 L 115.77,44.19 L 116.34,43.92 L 116.91,43.67 L 117.41,43.33 L 117.90,43.00 L 118.38,42.67 L 118.86,42.35 L 119.32,42.04 L 119.78,41.73 L 120.22,41.43 L 120.66,41.14 L 121.08,40.85 L 121.48,40.58 L 121.87,40.30 L 122.25,40.04 L 122.61,39.79 L 122.95,39.54 L 123.28,39.30 L 123.58,39.07 L 123.87,38.85 L 124.14,38.64 L 124.33,38.36 L 124.51,38.10 L 124.66,37.85 L 124.79,37.62 L 124.90,37.41 L 124.99,37.22 L 125.01,37.01 L 124.99,36.99 L 124.78,36.99 L 124.59,37.04 L 124.38,37.09 L 124.13,37.16 L 123.86,37.23 L 123.57,37.30 L 123.25,37.39 L 122.97,37.57 L 122.67,37.75 L 122.35,37.96 L 122.02,38.17 L 121.66,38.41 L 121.29,38.65 L 120.91,38.91 L 120.52,39.17 L 120.11,39.46 L 119.69,39.75 L 119.26,40.06 L 118.83,40.38 L 118.38,40.70 L 117.93,41.04 L 117.47,41.40 L 117.00,41.76 L 116.53,42.13 L 116.05,42.51 L 115.64,42.99 L 115.22,43.47 L 114.80,43.96 L 114.37,44.44 L 113.94,44.92 Z"/>
  <path fill="#000000" d="M 133.16,76.06 L 133.96,74.30 L 134.82,72.53 L 135.73,70.74 L 136.70,68.95 L 137.71,67.16 L 138.56,65.30 L 139.44,63.45 L 140.33,61.62 L 141.25,59.81 L 142.16,58.04 L 143.09,56.32 L 144.01,54.64 L 144.93,53.03 L 145.84,51.48 L 146.73,50.01 L 147.61,48.63 L 148.46,47.35 L 149.27,46.17 L 150.06,45.10 L 150.80,44.16 L 151.49,43.36 L 152.12,42.70 L 152.67,42.19 L 153.13,41.85 L 153.44,41.67 L 153.57,41.61 L 153.57,41.56 L 153.62,41.55 L 153.80,41.75 L 154.55,42.04 L 154.41,42.66 L 154.23,43.47 L 154.01,44.36 L 153.76,45.32 L 153.47,46.35 L 153.17,47.42 L 152.85,48.53 L 152.51,49.68 L 152.16,50.86 L 151.81,52.05 L 151.45,53.25 L 151.10,54.45 L 150.76,55.64 L 150.43,56.81 L 150.12,57.96 L 149.83,59.07 L 149.57,60.14 L 149.34,61.16 L 149.14,62.11 L 148.98,63.00 L 148.86,63.82 L 148.80,64.56 L 148.78,65.22 L 148.84,65.79 L 148.97,66.29 L 149.26,66.73 L 149.76,66.99 L 150.29,66.96 L 150.78,66.73 L 151.69,66.54 L 152.59,65.15 L 153.47,63.80 L 154.38,62.41 L 155.30,60.99 L 156.24,59.54 L 157.19,58.07 L 158.14,56.60 L 159.10,55.11 L 160.06,53.63 L 161.01,52.16 L 161.96,50.70 L 162.89,49.27 L 163.80,47.87 L 164.68,46.50 L 165.55,45.18 L 166.38,43.92 L 167.17,42.71 L 167.93,41.56 L 168.65,40.49 L 169.31,39.51 L 169.93,38.61 L 170.49,37.81 L 170.99,37.11 L 171.42,36.53 L 171.78,36.08 L 172.04,35.77 L 172.14,35.63 L 171.86,35.66 L 171.17,35.24 L 171.65,34.97 L 171.50,36.08 L 171.27,37.25 L 170.96,38.47 L 170.60,39.74 L 170.19,41.05 L 169.74,42.39 L 169.25,43.75 L 168.73,45.13 L 168.20,46.52 L 167.66,47.90 L 167.12,49.28 L 166.60,50.65 L 166.08,51.99 L 165.60,53.31 L 165.15,54.59 L 164.75,55.83 L 164.39,57.01 L 164.10,58.14 L 163.88,59.21 L 163.75,60.21 L 163.70,61.13 L 163.75,61.98 L 163.92,62.75 L 164.23,63.42 L 164.70,63.97 L 165.32,64.37 L 166.06,64.60 L 166.93,64.67 L 167.94,64.58 L 169.10,64.34 L 169.61,64.08 L 170.08,63.78 L 170.59,63.43 L 171.11,63.01 L 171.66,62.55 L 172.23,62.03 L 172.82,61.46 L 173.43,60.85 L 174.05,60.20 L 174.69,59.50 L 175.34,58.78 L 176.00,58.01 L 176.67,57.22 L 177.34,56.40 L 178.02,55.56 L 178.69,54.70 L 179.37,53.82 L 180.05,52.92 L 180.72,52.01 L 181.39,51.10 L 182.05,50.18 L 182.69,49.26 L 183.33,48.33 L 183.91,47.39 L 184.47,46.45 L 185.02,45.52 L 185.55,44.62 L 186.07,43.73 L 186.56,42.86 L 187.01,42.01 L 186.99,41.99 L 186.41,42.76 L 185.83,43.57 L 185.22,44.40 L 184.59,45.24 L 183.94,46.09 L 183.28,46.95 L 182.59,47.82 L 181.94,48.72 L 181.28,49.63 L 180.61,50.53 L 179.94,51.43 L 179.26,52.33 L 178.58,53.21 L 177.91,54.08 L 177.23,54.94 L 176.56,55.78 L 175.90,56.59 L 175.25,57.38 L 174.60,58.14 L 173.97,58.87 L 173.36,59.56 L 172.76,60.21 L 172.18,60.83 L 171.62,61.40 L 171.09,61.92 L 170.58,62.39 L 170.10,62.80 L 169.64,63.16 L 169.23,63.46 L 168.90,63.66 L 167.83,63.86 L 166.94,63.91 L 166.22,63.83 L 165.67,63.63 L 165.27,63.34 L 164.98,62.96 L 164.78,62.48 L 164.67,61.87 L 164.64,61.14 L 164.70,60.31 L 164.84,59.38 L 165.06,58.37 L 165.35,57.28 L 165.70,56.12 L 166.10,54.91 L 166.54,53.65 L 167.02,52.34 L 167.52,51.00 L 168.03,49.63 L 168.56,48.25 L 169.08,46.85 L 169.60,45.45 L 170.10,44.05 L 170.57,42.67 L 171.00,41.30 L 171.39,39.97 L 171.73,38.66 L 172.01,37.40 L 172.22,36.19 L 172.35,35.03 L 172.75,34.32 L 171.81,33.76 L 171.11,33.94 L 170.66,34.24 L 170.22,34.63 L 169.75,35.12 L 169.22,35.72 L 168.65,36.42 L 168.02,37.22 L 167.35,38.12 L 166.64,39.11 L 165.89,40.18 L 165.11,41.33 L 164.29,42.54 L 163.45,43.82 L 162.59,45.15 L 161.71,46.53 L 160.81,47.95 L 159.90,49.40 L 158.99,50.88 L 158.07,52.38 L 157.15,53.89 L 156.23,55.40 L 155.33,56.92 L 154.43,58.42 L 153.55,59.91 L 152.69,61.37 L 151.85,62.80 L 151.04,64.20 L 150.31,65.46 L 150.31,65.91 L 150.05,66.00 L 149.98,65.99 L 150.03,65.99 L 150.01,65.90 L 149.96,65.63 L 149.95,65.21 L 149.99,64.65 L 150.08,63.98 L 150.21,63.22 L 150.38,62.36 L 150.58,61.44 L 150.82,60.44 L 151.09,59.39 L 151.38,58.29 L 151.69,57.15 L 152.01,55.99 L 152.34,54.80 L 152.67,53.60 L 153.01,52.39 L 153.34,51.20 L 153.66,50.01 L 153.97,48.85 L 154.27,47.72 L 154.54,46.63 L 154.79,45.58 L 155.01,44.60 L 155.20,43.68 L 155.35,42.83 L 155.45,41.96 L 155.72,40.86 L 155.27,40.08 L 154.55,39.48 L 153.65,39.23 L 152.75,39.31 L 151.91,39.62 L 151.11,40.10 L 150.32,40.72 L 149.51,41.47 L 148.68,42.36 L 147.83,43.36 L 146.97,44.49 L 146.08,45.72 L 145.18,47.06 L 144.27,48.49 L 143.35,50.00 L 142.43,51.60 L 141.51,53.26 L 140.59,54.99 L 139.69,56.77 L 138.79,58.60 L 137.92,60.46 L 137.07,62.36 L 136.24,64.27 L 135.44,66.19 L 134.86,68.19 L 134.31,70.18 L 133.78,72.14 L 133.29,74.06 L 132.84,75.94 Z"/>
  <path fill="#000000" d="M 30.01,92.06 L 34.22,91.13 L 38.61,90.25 L 43.17,89.39 L 47.88,88.56 L 52.74,87.75 L 57.72,86.89 L 62.82,86.04 L 68.04,85.20 L 73.35,84.35 L 78.74,83.51 L 84.21,82.65 L 89.74,81.79 L 95.32,80.92 L 100.94,80.03 L 106.58,79.11 L 112.24,78.18 L 117.89,77.21 L 123.54,76.21 L 129.17,75.17 L 134.76,74.10 L 140.30,72.98 L 145.79,71.81 L 151.20,70.59 L 156.52,69.26 L 161.75,67.88 L 166.86,66.45 L 171.86,64.94 L 176.73,63.38 L 181.45,61.75 L 186.01,60.01 L 185.99,59.99 L 181.39,61.58 L 176.64,63.11 L 171.75,64.57 L 166.73,65.96 L 161.59,67.27 L 156.34,68.53 L 151.00,69.72 L 145.59,70.92 L 140.11,72.06 L 134.58,73.16 L 128.99,74.22 L 123.37,75.25 L 117.73,76.24 L 112.07,77.20 L 106.42,78.14 L 100.78,79.05 L 95.17,79.95 L 89.59,80.83 L 84.06,81.70 L 78.59,82.57 L 73.20,83.43 L 67.89,84.29 L 62.68,85.16 L 57.57,86.04 L 52.59,86.92 L 47.76,87.89 L 43.07,88.88 L 38.53,89.88 L 34.17,90.90 L 29.99,91.94 Z"/>
  <path fill="#000000" d="M 132.01,84.10 L 133.42,84.01 L 134.80,83.93 L 136.15,83.86 L 137.48,83.79 L 138.78,83.73 L 140.04,83.56 L 141.27,83.38 L 142.48,83.20 L 143.66,83.01 L 144.81,82.83 L 145.94,82.64 L 147.04,82.45 L 148.11,82.25 L 149.15,82.06 L 150.17,81.86 L 151.16,81.66 L 152.13,81.45 L 153.06,81.24 L 153.97,81.03 L 154.86,80.82 L 155.71,80.60 L 156.54,80.38 L 157.34,80.16 L 158.09,79.85 L 158.81,79.54 L 159.51,79.23 L 160.18,78.93 L 160.82,78.64 L 161.44,78.35 L 162.01,78.02 L 161.99,77.98 L 161.34,78.05 L 160.67,78.16 L 159.98,78.27 L 159.26,78.37 L 158.52,78.46 L 157.75,78.55 L 156.95,78.64 L 156.15,78.82 L 155.33,79.00 L 154.48,79.18 L 153.60,79.37 L 152.70,79.56 L 151.77,79.75 L 150.81,79.94 L 149.83,80.14 L 148.82,80.34 L 147.78,80.55 L 146.72,80.75 L 145.64,80.96 L 144.52,81.17 L 143.38,81.39 L 142.21,81.60 L 141.02,81.82 L 139.80,82.04 L 138.55,82.27 L 137.30,82.61 L 136.01,82.94 L 134.70,83.27 L 133.36,83.59 L 131.99,83.90 Z"/>
</svg>
